<?xml version="1.0" encoding="UTF-8" standalone="no"?> <!-- Created with Vectornator for iOS (http://vectornator.io/) --><!DOCTYPE svg PUBLIC "-//W3C//DTD SVG 1.1//EN" "http://www.w3.org/Graphics/SVG/1.1/DTD/svg11.dtd">
<svg height="100%" style="fill-rule:evenodd;clip-rule:evenodd;stroke-linecap:round;stroke-linejoin:round;" xmlns:xlink="http://www.w3.org/1999/xlink" xmlns="http://www.w3.org/2000/svg" xml:space="preserve" width="100%" xmlns:vectornator="http://vectornator.io" version="1.1" viewBox="0 0 3072 1024">
<metadata>
<vectornator:setting key="SnapToGrid" value="1"/>
<vectornator:setting key="SnapToPoints" value="1"/>
<vectornator:setting key="OutlineMode" value="0"/>
<vectornator:setting key="RulersVisible" value="1"/>
<vectornator:setting key="CMYKEnabledKey" value="0"/>
<vectornator:setting key="SnapToEdges" value="1"/>
<vectornator:setting key="DisplayWhiteBackground" value="0"/>
<vectornator:setting key="SnapToGuides" value="0"/>
<vectornator:setting key="GridSpacing" value="32"/>
<vectornator:setting key="Units" value="Pixels"/>
<vectornator:setting key="DynamicGuides" value="1"/>
<vectornator:setting key="IsolateActiveLayer" value="0"/>
</metadata>
<defs>
<linearGradient y1="867.039" id="LinearGradient" x1="512" y2="192" x2="512" gradientUnits="userSpaceOnUse" gradientTransform="matrix(1 0 0 1 0 -0.472449)">
<stop stop-color="#b43b69" offset="0"/>
<stop stop-color="#e9545f" offset="0.8833"/>
</linearGradient>
<linearGradient y1="707.654" id="LinearGradient_2" x1="1877.27" y2="442.846" x2="1877.27" gradientUnits="userSpaceOnUse" gradientTransform="matrix(1.08758 0 0 1.08758 -249.683 -97.631)">
<stop stop-color="#b43b69" offset="0"/>
<stop stop-color="#e9545f" offset="0.8833"/>
</linearGradient>
<linearGradient y1="707.654" id="LinearGradient_3" x1="1877.27" y2="442.846" x2="1877.27" gradientUnits="userSpaceOnUse" gradientTransform="matrix(1.08758 0 0 1.08758 -249.683 -97.631)">
<stop stop-color="#b43b69" offset="0"/>
<stop stop-color="#e9545f" offset="0.8833"/>
</linearGradient>
<linearGradient y1="707.654" id="LinearGradient_4" x1="1877.27" y2="442.846" x2="1877.27" gradientUnits="userSpaceOnUse" gradientTransform="matrix(1.08758 0 0 1.08758 -249.683 -97.631)">
<stop stop-color="#b43b69" offset="0"/>
<stop stop-color="#e9545f" offset="0.8833"/>
</linearGradient>
<linearGradient y1="707.654" id="LinearGradient_5" x1="1877.27" y2="442.846" x2="1877.27" gradientUnits="userSpaceOnUse" gradientTransform="matrix(1.08758 0 0 1.08758 -249.683 -97.631)">
<stop stop-color="#b43b69" offset="0"/>
<stop stop-color="#e9545f" offset="0.8833"/>
</linearGradient>
<linearGradient y1="707.654" id="LinearGradient_6" x1="1877.27" y2="442.846" x2="1877.27" gradientUnits="userSpaceOnUse" gradientTransform="matrix(1.08758 0 0 1.08758 -249.683 -97.631)">
<stop stop-color="#b43b69" offset="0"/>
<stop stop-color="#e9545f" offset="0.8833"/>
</linearGradient>
<linearGradient y1="707.654" id="LinearGradient_7" x1="1877.27" y2="442.846" x2="1877.27" gradientUnits="userSpaceOnUse" gradientTransform="matrix(1.08758 0 0 1.08758 -249.683 -97.631)">
<stop stop-color="#b43b69" offset="0"/>
<stop stop-color="#e9545f" offset="0.8833"/>
</linearGradient>
<linearGradient y1="707.654" id="LinearGradient_8" x1="1877.27" y2="442.846" x2="1877.27" gradientUnits="userSpaceOnUse" gradientTransform="matrix(1.08758 0 0 1.08758 -249.683 -97.631)">
<stop stop-color="#b43b69" offset="0"/>
<stop stop-color="#e9545f" offset="0.8833"/>
</linearGradient>
<linearGradient y1="707.654" id="LinearGradient_9" x1="1877.27" y2="442.846" x2="1877.27" gradientUnits="userSpaceOnUse" gradientTransform="matrix(1.08758 0 0 1.08758 -249.683 -97.631)">
<stop stop-color="#b43b69" offset="0"/>
<stop stop-color="#e9545f" offset="0.8833"/>
</linearGradient>
<linearGradient y1="707.654" id="LinearGradient_10" x1="1877.27" y2="442.846" x2="1877.27" gradientUnits="userSpaceOnUse" gradientTransform="matrix(1.08758 0 0 1.08758 -249.683 -97.631)">
<stop stop-color="#b43b69" offset="0"/>
<stop stop-color="#e9545f" offset="0.8833"/>
</linearGradient>
<linearGradient y1="707.654" id="LinearGradient_11" x1="1877.27" y2="442.846" x2="1877.27" gradientUnits="userSpaceOnUse" gradientTransform="matrix(1.08758 0 0 1.08758 -249.683 -97.631)">
<stop stop-color="#b43b69" offset="0"/>
<stop stop-color="#e9545f" offset="0.8833"/>
</linearGradient>
<linearGradient y1="707.654" id="LinearGradient_12" x1="1877.27" y2="442.846" x2="1877.27" gradientUnits="userSpaceOnUse" gradientTransform="matrix(1.08758 0 0 1.08758 -249.683 -97.631)">
<stop stop-color="#b43b69" offset="0"/>
<stop stop-color="#e9545f" offset="0.8833"/>
</linearGradient>
<linearGradient y1="707.654" id="LinearGradient_13" x1="1877.27" y2="442.846" x2="1877.27" gradientUnits="userSpaceOnUse" gradientTransform="matrix(1.08758 0 0 1.08758 -249.683 -97.631)">
<stop stop-color="#b43b69" offset="0"/>
<stop stop-color="#e9545f" offset="0.8833"/>
</linearGradient>
<linearGradient y1="2443.6" id="LinearGradient_14" x1="1504" y2="2443.6" x2="1536" gradientUnits="userSpaceOnUse" gradientTransform="matrix(1 0 0 1 0 0)">
<stop stop-color="#b43b69" offset="0"/>
<stop stop-color="#e9545f" offset="0.8833"/>
</linearGradient>
<linearGradient y1="2443.6" id="LinearGradient_15" x1="1504" y2="2443.6" x2="1536" gradientUnits="userSpaceOnUse" gradientTransform="matrix(1 0 0 1 0 0)">
<stop stop-color="#b43b69" offset="0"/>
<stop stop-color="#e9545f" offset="0.8833"/>
</linearGradient>
<linearGradient y1="2443.6" id="LinearGradient_16" x1="1504" y2="2443.6" x2="1536" gradientUnits="userSpaceOnUse" gradientTransform="matrix(1 0 0 1 0 0)">
<stop stop-color="#b43b69" offset="0"/>
<stop stop-color="#e9545f" offset="0.8833"/>
</linearGradient>
<linearGradient y1="2443.6" id="LinearGradient_17" x1="1504" y2="2443.6" x2="1536" gradientUnits="userSpaceOnUse" gradientTransform="matrix(1 0 0 1 0 0)">
<stop stop-color="#b43b69" offset="0"/>
<stop stop-color="#e9545f" offset="0.8833"/>
</linearGradient>
</defs>
<g id="Pin" vectornator:layerName="Pin">
<path stroke="#000000" vectornator:shadowColor="#616161" vectornator:shadowOffset="4.91978" stroke-width="1" fill="url(#LinearGradient)" stroke-linecap="round" vectornator:shadowAngle="2.03661" stroke-linejoin="round" opacity="1" vectornator:shadowRadius="11.4073" d="M512+191.528C352.939+191.528+224+320.466+224+479.528C224+639.528+352+770.566+512+866.566C672+770.566+800+639.528+800+479.528C800+320.466+671.061+191.528+512+191.528Z" stroke-opacity="0" vectornator:shadowOpacity="0.629283"/>
<path stroke="#000000" vectornator:shadowColor="#000000" vectornator:shadowOffset="10" stroke-width="1" fill="#ffffff" stroke-linecap="round" vectornator:shadowAngle="2.03661" stroke-linejoin="round" opacity="1" vectornator:shadowRadius="11.4073" d="M507.562-448C381.401-448+279.125-345.724+279.125-219.563C279.125-177.558+290.453-138.141+309.938-101.344L705.188-101.344C724.672-138.141+736-177.558+736-219.563C736-345.724+633.724-448+507.562-448ZM333.719+640C341.257+650.964+349.743+661.573+358.656+672L665.344+672C674.257+661.573+682.743+650.964+690.281+640L531.75+640L333.719+640ZM388.594+704C399.992+715.031+412.163+725.668+424.844+736L599.156+736C611.837+725.668+624.008+715.031+635.406+704L388.594+704ZM467.469+768C481.865+777.971+496.719+787.581+512+796.75C527.281+787.581+542.135+777.971+556.531+768L467.469+768Z" stroke-opacity="0" vectornator:shadowOpacity="0.35"/>
<g opacity="1">
<path vectornator:shadowColor="#616161" vectornator:shadowOpacity="0.629283" vectornator:shadowRadius="11.4073" d="M954.46+523.82L975.455+523.82C998.712+523.82+1010.34+513.699+1010.34+493.457C1010.34+473.215+998.712+463.094+975.455+463.094L954.46+463.094L954.46+523.82ZM954.46+655.609L891.149+655.609L891.149+412.058L991.929+412.058C1019.28+412.058+1040.22+419.165+1054.75+433.377C1069.29+447.59+1076.56+467.616+1076.56+493.457C1076.56+519.298+1069.29+539.325+1054.75+553.537C1040.22+567.75+1019.28+574.856+991.929+574.856L954.46+574.856L954.46+655.609Z" vectornator:shadowOffset="4.91978" fill="url(#LinearGradient_2)" opacity="1" vectornator:shadowAngle="2.03661"/>
<path vectornator:shadowColor="#616161" vectornator:shadowOpacity="0.629283" vectornator:shadowRadius="11.4073" d="M1163.12+489.904L1163.12+655.609L1104.66+655.609L1104.66+489.904L1163.12+489.904ZM1100.78+426.271C1100.78+421.749+1101.65+417.496+1103.37+413.512C1105.09+409.528+1107.46+406.029+1110.47+403.014C1113.49+399.999+1116.99+397.63+1120.97+395.908C1124.96+394.185+1129.21+393.324+1133.73+393.324C1138.25+393.324+1142.51+394.185+1146.49+395.908C1150.47+397.63+1153.97+399.999+1156.99+403.014C1160+406.029+1162.37+409.528+1164.09+413.512C1165.82+417.496+1166.68+421.749+1166.68+426.271C1166.68+430.793+1165.82+435.046+1164.09+439.03C1162.37+443.014+1160+446.513+1156.99+449.528C1153.97+452.542+1150.47+454.911+1146.49+456.634C1142.51+458.357+1138.25+459.218+1133.73+459.218C1129.21+459.218+1124.96+458.357+1120.97+456.634C1116.99+454.911+1113.49+452.542+1110.47+449.528C1107.46+446.513+1105.09+443.014+1103.37+439.03C1101.65+435.046+1100.78+430.793+1100.78+426.271Z" vectornator:shadowOffset="4.91978" fill="url(#LinearGradient_3)" opacity="1" vectornator:shadowAngle="2.03661"/>
<path vectornator:shadowColor="#616161" vectornator:shadowOpacity="0.629283" vectornator:shadowRadius="11.4073" d="M1328.18+543.524C1318.06+536.633+1307.83+533.188+1297.5+533.188C1291.9+533.188+1286.68+534.157+1281.83+536.095C1276.99+538.033+1272.73+540.778+1269.07+544.331C1265.41+547.885+1262.56+552.084+1260.51+556.929C1258.47+561.774+1257.44+567.211+1257.44+573.241C1257.44+579.055+1258.47+584.385+1260.51+589.23C1262.56+594.075+1265.36+598.274+1268.91+601.828C1272.46+605.381+1276.72+608.126+1281.67+610.064C1286.62+612.002+1291.9+612.971+1297.5+612.971C1308.48+612.971+1318.71+609.203+1328.18+601.666L1328.18+651.41C1313.76+657.655+1300.08+660.777+1287.16+660.777C1275.1+660.777+1263.64+658.731+1252.76+654.64C1241.89+650.548+1232.3+644.68+1224.01+637.036C1215.72+629.391+1209.1+620.239+1204.15+609.58C1199.19+598.92+1196.72+587.023+1196.72+573.887C1196.72+560.751+1199.09+548.746+1203.82+537.871C1208.56+526.997+1215.02+517.629+1223.21+509.769C1231.39+501.909+1241.13+495.772+1252.44+491.358C1263.74+486.943+1275.86+484.736+1288.78+484.736C1302.99+484.736+1316.12+487.751+1328.18+493.78L1328.18+543.524Z" vectornator:shadowOffset="4.91978" fill="url(#LinearGradient_4)" opacity="1" vectornator:shadowAngle="2.03661"/>
<path vectornator:shadowColor="#616161" vectornator:shadowOpacity="0.629283" vectornator:shadowRadius="11.4073" d="M1426.7+538.679L1426.7+655.609L1368.24+655.609L1368.24+538.679L1348.86+538.679L1348.86+489.904L1368.24+489.904L1368.24+440.16L1426.7+440.16L1426.7+489.904L1459.97+489.904L1459.97+538.679L1426.7+538.679Z" vectornator:shadowOffset="4.91978" fill="url(#LinearGradient_5)" opacity="1" vectornator:shadowAngle="2.03661"/>
<path vectornator:shadowColor="#616161" vectornator:shadowOpacity="0.629283" vectornator:shadowRadius="11.4073" d="M1540.4+489.904L1540.4+583.254C1540.4+603.712+1550.31+613.94+1570.12+613.94C1589.93+613.94+1599.84+603.712+1599.84+583.254L1599.84+489.904L1658.3+489.904L1658.3+594.56C1658.3+616.955+1650.93+633.752+1636.18+644.95C1621.42+656.147+1599.41+661.746+1570.12+661.746C1540.83+661.746+1518.81+656.147+1504.06+644.95C1489.31+633.752+1481.94+616.955+1481.94+594.56L1481.94+489.904L1540.4+489.904Z" vectornator:shadowOffset="4.91978" fill="url(#LinearGradient_6)" opacity="1" vectornator:shadowAngle="2.03661"/>
<path vectornator:shadowColor="#616161" vectornator:shadowOpacity="0.629283" vectornator:shadowRadius="11.4073" d="M1698.03+489.904L1756.5+489.904L1756.5+517.037C1762.74+507.131+1770.39+499.541+1779.43+494.265C1788.48+488.989+1799.03+486.351+1811.09+486.351C1812.59+486.351+1814.26+486.351+1816.09+486.351C1817.92+486.351+1820.02+486.566+1822.39+486.997L1822.39+542.878C1814.64+539.002+1806.24+537.064+1797.2+537.064C1783.63+537.064+1773.46+541.101+1766.67+549.177C1759.89+557.252+1756.5+569.042+1756.5+584.546L1756.5+655.609L1698.03+655.609L1698.03+489.904Z" vectornator:shadowOffset="4.91978" fill="url(#LinearGradient_7)" opacity="1" vectornator:shadowAngle="2.03661"/>
<path vectornator:shadowColor="#616161" vectornator:shadowOpacity="0.629283" vectornator:shadowRadius="11.4073" d="M1971.62+548.692C1969.68+540.509+1965.7+533.941+1959.67+528.988C1953.64+524.036+1946.32+521.559+1937.71+521.559C1928.66+521.559+1921.29+523.928+1915.58+528.665C1909.87+533.403+1906.27+540.078+1904.76+548.692L1971.62+548.692ZM1903.14+582.608C1903.14+607.803+1914.99+620.401+1938.68+620.401C1951.38+620.401+1960.96+615.232+1967.42+604.896L2023.95+604.896C2012.54+642.796+1984+661.746+1938.35+661.746C1924.36+661.746+1911.54+659.647+1899.91+655.447C1888.29+651.248+1878.33+645.273+1870.04+637.52C1861.74+629.768+1855.34+620.508+1850.82+609.741C1846.29+598.974+1844.03+586.915+1844.03+573.564C1844.03+559.782+1846.19+547.346+1850.49+536.256C1854.8+525.166+1860.94+515.745+1868.9+507.993C1876.87+500.24+1886.51+494.265+1897.81+490.066C1909.12+485.866+1921.88+483.767+1936.09+483.767C1950.09+483.767+1962.69+485.866+1973.88+490.066C1985.08+494.265+1994.56+500.348+2002.31+508.316C2010.06+516.283+2015.98+526.027+2020.07+537.548C2024.17+549.069+2026.21+562.043+2026.21+576.471L2026.21+582.608L1903.14+582.608Z" vectornator:shadowOffset="4.91978" fill="url(#LinearGradient_8)" opacity="1" vectornator:shadowAngle="2.03661"/>
<path vectornator:shadowColor="#616161" vectornator:shadowOpacity="0.629283" vectornator:shadowRadius="11.4073" d="M2157.35+465.678L2157.35+655.609L2094.04+655.609L2094.04+465.678L2042.04+465.678L2042.04+412.058L2209.36+412.058L2209.36+465.678L2157.35+465.678Z" vectornator:shadowOffset="4.91978" fill="url(#LinearGradient_9)" opacity="1" vectornator:shadowAngle="2.03661"/>
<path vectornator:shadowColor="#616161" vectornator:shadowOpacity="0.629283" vectornator:shadowRadius="11.4073" d="M2231.97+387.509L2290.43+387.509L2290.43+510.9C2298.4+501.209+2306.48+494.695+2314.66+491.358C2322.84+488.02+2332.43+486.351+2343.41+486.351C2364.3+486.351+2380.07+492.111+2390.73+503.632C2401.39+515.153+2406.72+530.711+2406.72+550.307L2406.72+655.609L2348.25+655.609L2348.25+571.949C2348.25+563.551+2347.61+556.767+2346.32+551.599C2345.02+546.431+2342.87+542.447+2339.86+539.648C2334.69+535.126+2328.44+532.865+2321.12+532.865C2311.22+532.865+2303.62+535.825+2298.35+541.747C2293.07+547.669+2290.43+556.121+2290.43+567.104L2290.43+655.609L2231.97+655.609L2231.97+387.509Z" vectornator:shadowOffset="4.91978" fill="url(#LinearGradient_10)" opacity="1" vectornator:shadowAngle="2.03661"/>
<path vectornator:shadowColor="#616161" vectornator:shadowOpacity="0.629283" vectornator:shadowRadius="11.4073" d="M2504.91+489.904L2504.91+655.609L2446.45+655.609L2446.45+489.904L2504.91+489.904ZM2442.57+426.271C2442.57+421.749+2443.43+417.496+2445.16+413.512C2446.88+409.528+2449.25+406.029+2452.26+403.014C2455.28+399.999+2458.78+397.63+2462.76+395.908C2466.75+394.185+2471+393.324+2475.52+393.324C2480.04+393.324+2484.3+394.185+2488.28+395.908C2492.26+397.63+2495.76+399.999+2498.78+403.014C2501.79+406.029+2504.16+409.528+2505.88+413.512C2507.61+417.496+2508.47+421.749+2508.47+426.271C2508.47+430.793+2507.61+435.046+2505.88+439.03C2504.16+443.014+2501.79+446.513+2498.78+449.528C2495.76+452.542+2492.26+454.911+2488.28+456.634C2484.3+458.357+2480.04+459.218+2475.52+459.218C2471+459.218+2466.75+458.357+2462.76+456.634C2458.78+454.911+2455.28+452.542+2452.26+449.528C2449.25+446.513+2446.88+443.014+2445.16+439.03C2443.43+435.046+2442.57+430.793+2442.57+426.271Z" vectornator:shadowOffset="4.91978" fill="url(#LinearGradient_11)" opacity="1" vectornator:shadowAngle="2.03661"/>
<path vectornator:shadowColor="#616161" vectornator:shadowOpacity="0.629283" vectornator:shadowRadius="11.4073" d="M2654.79+532.542C2644.02+526.943+2633.47+524.143+2623.14+524.143C2617.75+524.143+2613.39+525.22+2610.05+527.373C2606.72+529.527+2605.05+532.434+2605.05+536.095C2605.05+538.033+2605.32+539.594+2605.86+540.778C2606.39+541.963+2607.58+543.093+2609.41+544.17C2611.24+545.247+2613.93+546.216+2617.48+547.077C2621.04+547.938+2625.72+549.015+2631.54+550.307C2647.69+553.537+2659.74+559.298+2667.71+567.588C2675.68+575.879+2679.66+586.484+2679.66+599.405C2679.66+609.095+2677.73+617.817+2673.85+625.569C2669.97+633.321+2664.59+639.835+2657.7+645.111C2650.81+650.387+2642.52+654.478+2632.83+657.385C2623.14+660.293+2612.48+661.746+2600.85+661.746C2578.45+661.746+2556.38+655.394+2534.63+642.688L2555.95+601.343C2572.32+612.541+2587.82+618.14+2602.46+618.14C2607.85+618.14+2612.26+616.955+2615.71+614.586C2619.15+612.218+2620.88+609.203+2620.88+605.542C2620.88+603.389+2620.61+601.612+2620.07+600.212C2619.53+598.813+2618.4+597.521+2616.68+596.336C2614.95+595.152+2612.42+594.075+2609.09+593.106C2605.75+592.137+2601.39+591.114+2596+590.038C2577.92+586.377+2565.26+580.939+2558.05+573.726C2550.84+566.512+2547.23+556.552+2547.23+543.847C2547.23+534.587+2548.95+526.243+2552.4+518.814C2555.84+511.384+2560.8+505.086+2567.26+499.917C2573.72+494.749+2581.52+490.765+2590.67+487.966C2599.83+485.167+2610+483.767+2621.2+483.767C2639.5+483.767+2657.27+487.32+2674.5+494.426L2654.79+532.542Z" vectornator:shadowOffset="4.91978" fill="url(#LinearGradient_12)" opacity="1" vectornator:shadowAngle="2.03661"/>
<path vectornator:shadowColor="#616161" vectornator:shadowOpacity="0.629283" vectornator:shadowRadius="11.4073" d="M2721.01+572.918L2721.01+412.058L2781.74+412.058L2781.74+572.918L2721.01+572.918ZM2713.58+624.6C2713.58+619.432+2714.55+614.533+2716.49+609.903C2718.43+605.273+2721.12+601.235+2724.56+597.79C2728.01+594.344+2732.05+591.653+2736.68+589.715C2741.31+587.777+2746.2+586.807+2751.37+586.807C2756.54+586.807+2761.44+587.777+2766.07+589.715C2770.7+591.653+2774.74+594.344+2778.18+597.79C2781.63+601.235+2784.32+605.273+2786.26+609.903C2788.2+614.533+2789.16+619.432+2789.16+624.6C2789.16+629.768+2788.2+634.667+2786.26+639.297C2784.32+643.927+2781.63+647.964+2778.18+651.41C2774.74+654.855+2770.7+657.547+2766.07+659.485C2761.44+661.423+2756.54+662.392+2751.37+662.392C2746.2+662.392+2741.31+661.423+2736.68+659.485C2732.05+657.547+2728.01+654.855+2724.56+651.41C2721.12+647.964+2718.43+643.927+2716.49+639.297C2714.55+634.667+2713.58+629.768+2713.58+624.6Z" vectornator:shadowOffset="4.91978" fill="url(#LinearGradient_13)" opacity="1" vectornator:shadowAngle="2.03661"/>
</g>
<g opacity="1">
<path vectornator:shadowColor="#616161" vectornator:shadowOpacity="0.629283" vectornator:shadowRadius="11.4073" d="M1510.25+1819.4L1665.88+1819.4L1665.88+1836.63L1598.16+1836.63L1598.16+2033.24L1577.97+2033.24L1577.97+1836.63L1510.25+1836.63L1510.25+1819.4Z" vectornator:shadowOffset="4.91978" fill="url(#LinearGradient_14)" opacity="1" vectornator:shadowAngle="2.03661"/>
<path vectornator:shadowColor="#616161" vectornator:shadowOpacity="0.629283" vectornator:shadowRadius="11.4073" d="M1638.26+2287.18C1638.26+2279.65+1637.22+2272.57+1635.14+2265.94C1633.06+2259.31+1629.99+2253.56+1625.93+2248.71C1621.87+2243.86+1616.78+2240+1610.64+2237.13C1604.5+2234.26+1597.47+2232.82+1589.55+2232.82C1581.63+2232.82+1574.65+2234.31+1568.61+2237.28C1562.57+2240.25+1557.43+2244.21+1553.17+2249.16C1548.91+2254.11+1545.5+2259.85+1542.92+2266.39C1540.35+2272.92+1538.67+2279.85+1537.87+2287.18L1638.26+2287.18ZM1537.87+2302.03C1537.87+2310.34+1538.96+2318.21+1541.14+2325.64C1543.32+2333.06+1546.54+2339.5+1550.79+2344.94C1555.05+2350.39+1560.44+2354.74+1566.98+2358.01C1573.51+2361.28+1581.04+2362.91+1589.55+2362.91C1601.23+2362.91+1611.23+2359.84+1619.55+2353.7C1627.86+2347.56+1633.41+2338.85+1636.18+2327.57L1656.08+2327.57C1653.9+2334.89+1651.03+2341.67+1647.47+2347.91C1643.9+2354.15+1639.45+2359.59+1634.1+2364.25C1628.75+2368.9+1622.42+2372.51+1615.09+2375.09C1607.77+2377.66+1599.25+2378.95+1589.55+2378.95C1577.27+2378.95+1566.68+2376.87+1557.77+2372.71C1548.86+2368.55+1541.54+2362.86+1535.79+2355.63C1530.05+2348.41+1525.8+2339.89+1523.02+2330.09C1520.25+2320.29+1518.87+2309.75+1518.87+2298.46C1518.87+2287.17+1520.5+2276.58+1523.77+2266.68C1527.03+2256.78+1531.69+2248.12+1537.72+2240.69C1543.76+2233.27+1551.14+2227.43+1559.85+2223.17C1568.56+2218.91+1578.46+2216.79+1589.55+2216.79C1610.74+2216.79+1627.37+2224.06+1639.45+2238.62C1651.53+2253.17+1657.47+2274.3+1657.27+2302.03L1537.87+2302.03Z" vectornator:shadowOffset="4.91978" fill="url(#LinearGradient_15)" opacity="1" vectornator:shadowAngle="2.03661"/>
<path vectornator:shadowColor="#616161" vectornator:shadowOpacity="0.629283" vectornator:shadowRadius="11.4073" d="M1580.34+2649.81L1532.53+2716.34L1510.85+2716.34L1569.95+2636.74L1515.6+2562.49L1537.58+2562.49L1580.05+2623.68L1623.71+2562.49L1646.28+2562.49L1590.74+2636.74L1648.36+2716.34L1626.97+2716.34L1580.34+2649.81Z" vectornator:shadowOffset="4.91978" fill="url(#LinearGradient_16)" opacity="1" vectornator:shadowAngle="2.03661"/>
<path vectornator:shadowColor="#616161" vectornator:shadowOpacity="0.629283" vectornator:shadowRadius="11.4073" d="M1580.94+3058.48C1578.76+3058.88+1575.89+3059.57+1572.33+3060.56C1568.76+3061.55+1564.8+3062.05+1560.44+3062.05C1551.53+3062.05+1544.75+3059.82+1540.1+3055.37C1535.45+3050.91+1533.12+3042.94+1533.12+3031.46L1533.12+2918.89L1511.44+2918.89L1511.44+2904.04L1533.12+2904.04L1533.12+2861.28L1550.94+2861.28L1550.94+2904.04L1579.75+2904.04L1579.75+2918.89L1550.94+2918.89L1550.94+3024.33C1550.94+3028.09+1551.04+3031.36+1551.24+3034.13C1551.44+3036.9+1552.03+3039.18+1553.02+3040.96C1554.01+3042.74+1555.54+3044.03+1557.62+3044.82C1559.7+3045.61+1562.62+3046.01+1566.38+3046.01C1568.76+3046.01+1571.19+3045.81+1573.66+3045.42C1576.14+3045.02+1578.56+3044.53+1580.94+3043.93L1580.94+3058.48Z" vectornator:shadowOffset="4.91978" fill="url(#LinearGradient_17)" opacity="1" vectornator:shadowAngle="2.03661"/>
</g>
</g>
<g id="Cityscape" vectornator:layerName="Cityscape">
<path stroke="#ffffff" vectornator:shadowColor="#000000" vectornator:shadowOffset="10" stroke-width="12.18" fill-opacity="0.987738" fill="#ffffff" stroke-linecap="round" vectornator:shadowAngle="1.5708" stroke-linejoin="round" opacity="1" vectornator:shadowRadius="10" d="M512+253.906C387.139+253.906+285.906+355.139+285.906+480C285.906+514.329+293.622+546.858+307.312+576L352+576L352+544.062L352+512L416+512L416+480L416+384L416+352L448+352L480+352L512+352L512+416L512+448L544+448L544+416L544+384L576+384L608+384L608+448L608+480L608+512L640+512L672+512L672+576L704+576L716.688+576C730.38+546.855+738.094+514.332+738.094+480C738.094+355.139+636.861+253.906+512+253.906Z" stroke-opacity="0.981308" vectornator:shadowOpacity="0.345794"/>
</g>
<g id="Layer 1" vectornator:layerName="Layer 1" visibility="hidden">
<path stroke="#ffffff" vectornator:shadowColor="#000000" vectornator:shadowOffset="10" stroke-width="12.18" fill-opacity="0" fill="#ffffff" stroke-linecap="round" vectornator:shadowAngle="1.5708" stroke-linejoin="round" opacity="0" vectornator:shadowRadius="10" d="M796.768+751.957L796.768+783.957L796.768+879.957L796.768+911.957L732.768+911.957L732.768+944.019L732.768+975.957L688.081+975.957C724.185+1052.81+802.236+1106.05+892.768+1106.05C954.749+1106.05+1010.9+1081.1+1051.74+1040.71C1070.55+1022.1+1086.07+1000.19+1097.46+975.957L1084.77+975.957L1052.77+975.957L1052.77+911.957L1020.77+911.957L988.768+911.957L988.768+879.957L988.768+847.957L988.768+783.957L956.768+783.957L924.768+783.957L924.768+815.957L924.768+847.957L892.768+847.957L892.768+815.957L892.768+751.957L860.768+751.957L828.768+751.957L796.768+751.957Z" stroke-opacity="0.981308" vectornator:shadowOpacity="0.345794"/>
</g>
</svg>
